<svg xmlns="http://www.w3.org/2000/svg" xmlns:xlink="http://www.w3.org/1999/xlink" width="72.779" height="73.02" viewBox="0 0 72.779 73.02">
  <defs>
    <clipPath id="clip-path">
      <rect width="72.779" height="73.02" fill="none"/>
    </clipPath>
  </defs>
  <g id="On_time_delivery_icon" clip-path="url(#clip-path)">
    <path id="Path_1" data-name="Path 1" d="M69.5,40.972,61.932,28.937a12.444,12.444,0,0,0-9.2-4.6H44.623V20.283a6.7,6.7,0,0,0-6.761-6.761h0A15.072,15.072,0,0,0,22.988,0,14.844,14.844,0,0,0,8.249,13.522H6.761A6.7,6.7,0,0,0,0,20.283V52.06c0,2.164,0,4.057,1.082,5.138a3.181,3.181,0,0,0,2.3.811c.135,0,.406,0,.406.135.406.406.27,1.623.27,2.164v.541a3.453,3.453,0,0,0,2.028,3.516,8.182,8.182,0,0,0,3.245.541A8.832,8.832,0,0,0,18.12,73.02a8.738,8.738,0,0,0,8.789-8.113H47.057a8.832,8.832,0,0,0,8.789,8.113,8.738,8.738,0,0,0,8.789-8.113h1.352a6.7,6.7,0,0,0,6.761-6.761V51.384A17.617,17.617,0,0,0,69.5,40.972ZM59.768,30.425,67.34,42.46a15.439,15.439,0,0,1,1.217,2.164H56.793a3.984,3.984,0,0,1-4.057-4.057V27.044A9.984,9.984,0,0,1,59.768,30.425ZM22.988,2.7a12.17,12.17,0,1,1-12.17,12.17A12.119,12.119,0,0,1,22.988,2.7ZM18.12,70.315a6.22,6.22,0,1,1,6.22-6.22A6.2,6.2,0,0,1,18.12,70.315Zm0-15.145A8.839,8.839,0,0,0,9.466,62.2a5.971,5.971,0,0,1-2.3-.27c-.135-.135-.406-.27-.406-1.082v-.406c0-1.217.135-2.975-1.082-4.057a3.051,3.051,0,0,0-2.3-.947.5.5,0,0,1-.406-.135c-.27-.27-.27-1.893-.27-3.245V20.283a3.984,3.984,0,0,1,4.057-4.057H8.249A14.844,14.844,0,0,0,22.988,29.749,15.072,15.072,0,0,0,37.862,16.227h0a3.984,3.984,0,0,1,4.057,4.057V62.2H26.774A8.863,8.863,0,0,0,18.12,55.171Zm38,15.145a6.22,6.22,0,1,1,6.22-6.22A6.384,6.384,0,0,1,56.117,70.315Zm14.2-12.17A3.984,3.984,0,0,1,66.259,62.2H64.771a9.1,9.1,0,0,0-8.654-7.032A8.839,8.839,0,0,0,47.463,62.2h-2.7V27.044h5.409V40.567a6.7,6.7,0,0,0,6.761,6.761H69.774a15.859,15.859,0,0,1,.676,4.057v6.761Z" fill="#fff"/>
    <path id="Path_2" data-name="Path 2" d="M14.352,19.227a1.228,1.228,0,0,0,.947-.406l4.057-4.057a1.228,1.228,0,0,0,.406-.947V4.352a1.352,1.352,0,1,0-2.7,0v8.925l-3.651,3.651a1.307,1.307,0,0,0,0,1.893A1.228,1.228,0,0,0,14.352,19.227Z" transform="translate(4.579 1.057)" fill="#fff"/>
  </g>
</svg>
