<svg xmlns="http://www.w3.org/2000/svg" width="65.07" height="65.496" viewBox="0 0 65.07 65.496">
  <g id="Group_4" data-name="Group 4" transform="translate(-0.15)">
    <path id="Path_13" data-name="Path 13" d="M51.125,51.241l-11.544-7.9a3.794,3.794,0,0,0-5.1.851L31.44,48.446a1.1,1.1,0,0,0-.365.851,3.778,3.778,0,0,1-2.066.608c-1.7,0-4.5-.851-8.627-4.982-6.8-6.8-6.8-9.721-5.954-12.03a2.656,2.656,0,0,0,.608-.365l4.131-3.159a3.8,3.8,0,0,0,.729-5.225l-8.263-11.3Q9.081,9.38,5.8,12.114A22.906,22.906,0,0,0,1.547,17.46,4.334,4.334,0,0,0,.94,20.133C-2.949,35.444,8.6,47.96,12.241,51.484c9.964,9.6,19.2,11.665,25.275,11.665h0a18.6,18.6,0,0,0,6.926-1.094,5.1,5.1,0,0,0,2.552-.729,26.8,26.8,0,0,0,5.225-4.5,4.1,4.1,0,0,0,1.094-3.038A5.866,5.866,0,0,0,51.125,51.241Zm-.972,4.253a20.626,20.626,0,0,1-4.618,3.888,3.168,3.168,0,0,1-1.337.365,1.541,1.541,0,0,0-.729.122,16.307,16.307,0,0,1-6.2.972h0c-5.59,0-14.1-1.944-23.574-10.936C10.3,46.623-.518,34.837,3.127,20.619v-.486a1.68,1.68,0,0,1,.365-1.458,23.945,23.945,0,0,1,3.767-4.739,3.155,3.155,0,0,1,1.215-.486c.365,0,.851.486,1.094.851L17.83,25.6c.486.608-.243,1.823-.243,1.823l-4.131,3.159c-.122,0-.122.122-.365.122a1.634,1.634,0,0,0-.851.729c-1.7,3.767-1.337,7.655,6.2,15.189,3.767,3.767,7.169,5.59,10.329,5.59a6.34,6.34,0,0,0,4.01-1.337,1.05,1.05,0,0,0,.365-.729.446.446,0,0,1,.122-.365L36.3,45.53a1.449,1.449,0,0,1,1.823-.243l11.544,7.9a1.982,1.982,0,0,1,.972,1.094C50.76,54.643,50.517,55.008,50.153,55.494Z" transform="translate(0 2.347)" fill="#fff"/>
    <path id="Path_14" data-name="Path 14" d="M26.2,24.846c-2.066,1.337-4.5,2.795-4.5,5.59v1.58a1.148,1.148,0,0,0,1.215,1.215H31.43a1.215,1.215,0,0,0,0-2.43H24.139v-.365c0-1.458,1.215-2.309,3.281-3.524,2.309-1.458,5.225-3.281,5.225-7.048a4.5,4.5,0,0,0-1.458-3.524A6.5,6.5,0,0,0,26.448,15a6.351,6.351,0,0,0-4.618,3.038,1.251,1.251,0,1,0,2.187,1.215,3.794,3.794,0,0,1,2.673-1.823,3.367,3.367,0,0,1,2.795.729,2.039,2.039,0,0,1,.729,1.7C30.215,22.051,28.757,23.266,26.2,24.846Z" transform="translate(4.627 3.224)" fill="#fff"/>
    <path id="Path_15" data-name="Path 15" d="M40.67,16.108a1.371,1.371,0,0,0-1.337.365l-7.291,8.506a1.025,1.025,0,0,0-.243.851v1.215a1.148,1.148,0,0,0,1.215,1.215h6.076V31.9a1.215,1.215,0,1,0,2.43,0V28.259h1.215a1.215,1.215,0,0,0,0-2.43H41.521V17.323C41.4,16.716,41.157,16.23,40.67,16.108Zm-1.7,9.6h-4.5l4.5-5.225Z" transform="translate(6.809 3.456)" fill="#fff"/>
    <path id="Path_16" data-name="Path 16" d="M61.995,49.942l-4.131,1.337a33.15,33.15,0,0,0,5.711-18.47A32.827,32.827,0,0,0,30.766,0a32.4,32.4,0,0,0-22.6,8.992,1.2,1.2,0,0,0,1.7,1.7A30.431,30.431,0,0,1,61.144,32.809,30.81,30.81,0,0,1,55.8,50.063l-.729-4.131a1.239,1.239,0,1,0-2.43.486l1.215,7.291c0,.365.243.608.608.851a1.1,1.1,0,0,0,.608.122.446.446,0,0,0,.365-.122l7.291-2.43a1.216,1.216,0,0,0,.729-1.58A1.076,1.076,0,0,0,61.995,49.942Z" transform="translate(1.646 0)" fill="#fff"/>
  </g>
</svg>
