<svg xmlns="http://www.w3.org/2000/svg" xmlns:xlink="http://www.w3.org/1999/xlink" width="62" height="64.385" viewBox="0 0 62 64.385">
  <defs>
    <clipPath id="clip-path">
      <rect width="62" height="64.385" fill="none"/>
    </clipPath>
  </defs>
  <g id="Parcels_Icon" clip-path="url(#clip-path)">
    <path id="Path_3" data-name="Path 3" d="M60.808,11.685a.9.9,0,0,0-.238-.477L53.654,2.385A6.853,6.853,0,0,0,48.885,0H13.115A6.418,6.418,0,0,0,8.346,2.385L1.431,11.208c-.119.119-.119.238-.238.477A3.416,3.416,0,0,0,0,14.308v46.5a3.513,3.513,0,0,0,3.577,3.577H58.423A3.513,3.513,0,0,0,62,60.808v-46.5A3.416,3.416,0,0,0,60.808,11.685Zm-11.923-9.3a4.157,4.157,0,0,1,2.862,1.431l5.485,6.915H36.962V2.385Zm-14.308,0V23.846a1.126,1.126,0,0,1-1.192,1.192H28.615a1.126,1.126,0,0,1-1.192-1.192V2.385ZM10.254,3.815a4.157,4.157,0,0,1,2.862-1.431H25.038v8.346H4.769ZM59.615,60.808A1.126,1.126,0,0,1,58.423,62H3.577a1.126,1.126,0,0,1-1.192-1.192v-46.5a1.126,1.126,0,0,1,1.192-1.192H25.038V23.846a3.513,3.513,0,0,0,3.577,3.577h4.769a3.513,3.513,0,0,0,3.577-3.577V13.115H58.423a1.126,1.126,0,0,1,1.192,1.192Z" fill="#fff"/>
    <path id="Path_4" data-name="Path 4" d="M47.846,46H25.192a1.192,1.192,0,1,0,0,2.385H47.846a1.192,1.192,0,0,0,0-2.385Z" transform="translate(4.615 8.846)" fill="#fff"/>
    <path id="Path_5" data-name="Path 5" d="M41.8,30.358a1.153,1.153,0,0,0-1.669,0l-4.769,4.769A1.18,1.18,0,0,0,37.027,36.8l2.742-2.742V44.308a1.192,1.192,0,0,0,2.385,0V34.054L44.9,36.8a1.288,1.288,0,0,0,.835.358,1.082,1.082,0,0,0,.835-.358,1.153,1.153,0,0,0,0-1.669Z" transform="translate(6.731 5.769)" fill="#fff"/>
    <path id="Path_6" data-name="Path 6" d="M26.027,36.8l2.742-2.742V44.308a1.192,1.192,0,1,0,2.385,0V34.054L33.9,36.8a1.288,1.288,0,0,0,.835.358,1.082,1.082,0,0,0,.835-.358,1.153,1.153,0,0,0,0-1.669L30.8,30.358a1.153,1.153,0,0,0-1.669,0l-4.769,4.769A1.18,1.18,0,0,0,26.027,36.8Z" transform="translate(4.615 5.769)" fill="#fff"/>
  </g>
</svg>
