<svg xmlns="http://www.w3.org/2000/svg" xmlns:xlink="http://www.w3.org/1999/xlink" width="52.148" height="64" viewBox="0 0 52.148 64">
  <defs>
    <clipPath id="clip-path">
      <rect width="52.148" height="64" fill="none"/>
    </clipPath>
  </defs>
  <g id="Quality_Icon" clip-path="url(#clip-path)">
    <path id="Path_7" data-name="Path 7" d="M46.222,8.3H37.807a3,3,0,0,0-2.844-2.37A2.43,2.43,0,0,1,33.422,4.5L32.83,2.963A5.1,5.1,0,0,0,28.444,0H24.889A5.1,5.1,0,0,0,20.5,2.963L19.911,4.5A2.43,2.43,0,0,1,18.37,5.926,3.265,3.265,0,0,0,15.526,8.3h-9.6A5.868,5.868,0,0,0,0,14.222V58.074A5.868,5.868,0,0,0,5.926,64h40.3a5.868,5.868,0,0,0,5.926-5.926V14.222A5.868,5.868,0,0,0,46.222,8.3ZM17.778,9.481c0-.711.356-1.185.593-1.185a4.731,4.731,0,0,0,3.793-2.963l.593-1.541A2.552,2.552,0,0,1,24.889,2.37h3.556a2.552,2.552,0,0,1,2.133,1.422l.593,1.541c.119.237.119.356.237.593H29.63a1.12,1.12,0,0,0-1.185,1.185A1.12,1.12,0,0,0,29.63,8.3h5.333c.237,0,.593.474.593,1.185v1.185a1.12,1.12,0,0,1-1.185,1.185H18.963a1.12,1.12,0,0,1-1.185-1.185Zm32,48.593a3.492,3.492,0,0,1-3.556,3.556H5.926A3.492,3.492,0,0,1,2.37,58.074V14.222a3.492,3.492,0,0,1,3.556-3.556h9.481a3.492,3.492,0,0,0,3.556,3.556H34.37a3.492,3.492,0,0,0,3.556-3.556h8.3a3.492,3.492,0,0,1,3.556,3.556Z" fill="#fff"/>
    <path id="Path_8" data-name="Path 8" d="M22.037,26.3a1.12,1.12,0,0,0-1.185,1.185v2.37H11.37V20.37h7.111a1.185,1.185,0,1,0,0-2.37h-8.3A1.12,1.12,0,0,0,9,19.185V31.037a1.12,1.12,0,0,0,1.185,1.185H22.037a1.12,1.12,0,0,0,1.185-1.185V27.481A1.12,1.12,0,0,0,22.037,26.3Z" transform="translate(1.667 3.333)" fill="#fff"/>
    <path id="Path_9" data-name="Path 9" d="M24.089,17.475,17.215,25.3l-3.2-3.2a1.146,1.146,0,0,0-1.659,0,1.289,1.289,0,0,0,0,1.778L16.5,28.142c.237.237.474.593.83.593V27.549c.356,0,.593.119.83-.119l7.7-8.533a1.152,1.152,0,0,0-.119-1.659A1.171,1.171,0,0,0,24.089,17.475Z" transform="translate(2.222 3.147)" fill="#fff"/>
    <path id="Path_10" data-name="Path 10" d="M35.3,24H28.185a1.185,1.185,0,0,0,0,2.37H35.3a1.185,1.185,0,1,0,0-2.37Z" transform="translate(5 4.444)" fill="#fff"/>
    <path id="Path_11" data-name="Path 11" d="M22.037,35H10.185A1.12,1.12,0,0,0,9,36.185V48.037a1.12,1.12,0,0,0,1.185,1.185H22.037a1.12,1.12,0,0,0,1.185-1.185V36.185A1.12,1.12,0,0,0,22.037,35ZM20.852,46.852H11.37V37.37h9.481Z" transform="translate(1.667 6.481)" fill="#fff"/>
    <path id="Path_12" data-name="Path 12" d="M35.3,40H28.185a1.185,1.185,0,0,0,0,2.37H35.3a1.185,1.185,0,1,0,0-2.37Z" transform="translate(5 7.407)" fill="#fff"/>
  </g>
</svg>
